<?xml version="1.0"?>
<svg xmlns="http://www.w3.org/2000/svg" xmlns:xlink="http://www.w3.org/1999/xlink" xmlns:svgjs="http://svgjs.com/svgjs" version="1.1" width="512" height="512" x="0" y="0" viewBox="0 0 318.188 318.188" style="enable-background:new 0 0 512 512" xml:space="preserve" class=""><g>
<g xmlns="http://www.w3.org/2000/svg">
	<polygon style="" points="227.321,7.5 40.342,7.5 40.342,310.688 277.846,310.688 277.846,58.025  " fill="#ffffff" data-original="#e4e4e4" class=""/>
	<polygon style="" points="235.14,32.763 40.342,32.763 40.342,7.5 227.321,7.5  " fill="#fb9200" data-original="#fb9200" class=""/>
	<g>
		<rect x="193.448" y="95.402" style="" width="14.419" height="62.587" fill="#cecece" data-original="#a4a9ad" class=""/>
		<g>
			<polygon style="" points="211.089,141.025 190.227,144.798 190.227,151.189 211.089,147.416    " fill="#e4e4e4" data-original="#d1d3d3" class=""/>
			<polygon style="" points="211.089,128.084 190.227,131.857 190.227,138.248 211.089,134.476    " fill="#e4e4e4" data-original="#d1d3d3" class=""/>
			<polygon style="" points="211.089,115.144 190.227,118.916 190.227,125.307 211.089,121.535    " fill="#e4e4e4" data-original="#d1d3d3" class=""/>
			<polygon style="" points="211.089,102.203 190.227,105.975 190.227,112.366 211.089,108.593    " fill="#e4e4e4" data-original="#d1d3d3" class=""/>
		</g>
		<rect x="195.865" y="162.5" style="" width="9.585" height="18.042" fill="#cecece" data-original="#a4a9ad" class=""/>
		<polygon style="" points="190.227,155.452 170.774,162.782 111.868,162.782 118.917,174.623 170.774,174.623     190.227,167.292 211.089,167.292 211.089,155.452   " fill="#cecece" data-original="#a4a9ad" class=""/>
		<polygon style="" points="190.227,97.94 170.774,90.61 111.868,90.61 118.917,78.77 170.774,78.77 190.227,86.099     211.089,86.099 211.089,97.94   " fill="#cecece" data-original="#a4a9ad" class=""/>
		<g>
			<rect x="97.193" y="90.61" style="" width="71.052" height="72.171" fill="#fb9200" data-original="#fb9200" class=""/>
			<g>
				<rect x="107.676" y="99.685" style="" width="50.086" height="22.828" fill="#ff671b" data-original="#ff671b" class=""/>
				<rect x="124.642" y="106.318" style="" width="16.154" height="3.953" fill="#ffffff" data-original="#ffffff"/>
			</g>
			<g>
				<rect x="107.676" y="130.88" style="" width="50.086" height="22.827" fill="#ff671b" data-original="#ff671b" class=""/>
				<rect x="124.642" y="137.513" style="" width="16.154" height="3.954" fill="#ffffff" data-original="#ffffff"/>
			</g>
		</g>
		<rect x="190.227" y="174.623" style="" width="20.862" height="11.84" fill="#cecece" data-original="#a4a9ad" class=""/>
	</g>
	<polygon style="" points="227.321,58.025 277.846,58.025 227.321,7.5  " fill="#e4e4e4" data-original="#d1d3d3" class=""/>
	<path style="" d="M283.149,52.722L232.625,2.197C231.218,0.79,229.311,0,227.321,0H40.342c-4.142,0-7.5,3.358-7.5,7.5   v303.188c0,4.142,3.358,7.5,7.5,7.5h237.504c4.143,0,7.5-3.358,7.5-7.5V58.025C285.346,56.036,284.556,54.129,283.149,52.722z    M234.821,25.606l24.918,24.919h-24.918L234.821,25.606L234.821,25.606z M47.842,15h171.979v10.263H47.842V15z M270.346,303.188   H47.842V40.263h171.979v17.763c0,4.142,3.357,7.5,7.5,7.5h43.024v237.662H270.346z M149.603,233.195l-15.387,47.351l-13.428-20.079   c5.426-3.041,8.139-7.34,8.139-12.897c0-9.451-6.52-14.177-19.559-14.177h-15.72v47.979h12.963v-17.459h3.282l10.174,17.459h28.125   l2.428-8.992h15.59l2.361,8.992h14.178l-15.85-48.176h-17.296V233.195z M109.039,254.166h-2.429v-10.961h2.56   c4.441,0,6.662,1.652,6.662,4.956C115.832,252.164,113.568,254.166,109.039,254.166z M153.31,261.746   c1.99-7.526,3.277-12.569,3.857-15.129c0.578-2.56,0.967-4.397,1.164-5.513c0.219,1.204,0.674,3.194,1.361,5.973   c0.689,2.779,1.275,5.043,1.756,6.793l2.068,7.876H153.31z M223.211,247.569c0-9.451-6.52-14.177-19.559-14.177h-15.72v47.979   h12.963v-17.459h3.281l10.174,17.459h14.702l-13.98-20.905C220.498,257.426,223.211,253.126,223.211,247.569z M203.323,254.166   h-2.428v-10.961h2.56c4.441,0,6.662,1.652,6.662,4.956C210.117,252.164,207.853,254.166,203.323,254.166z" fill="#24345f" data-original="#333e48" class=""/>
</g>
<g xmlns="http://www.w3.org/2000/svg">
</g>
<g xmlns="http://www.w3.org/2000/svg">
</g>
<g xmlns="http://www.w3.org/2000/svg">
</g>
<g xmlns="http://www.w3.org/2000/svg">
</g>
<g xmlns="http://www.w3.org/2000/svg">
</g>
<g xmlns="http://www.w3.org/2000/svg">
</g>
<g xmlns="http://www.w3.org/2000/svg">
</g>
<g xmlns="http://www.w3.org/2000/svg">
</g>
<g xmlns="http://www.w3.org/2000/svg">
</g>
<g xmlns="http://www.w3.org/2000/svg">
</g>
<g xmlns="http://www.w3.org/2000/svg">
</g>
<g xmlns="http://www.w3.org/2000/svg">
</g>
<g xmlns="http://www.w3.org/2000/svg">
</g>
<g xmlns="http://www.w3.org/2000/svg">
</g>
<g xmlns="http://www.w3.org/2000/svg">
</g>
</g></svg>
