<svg width="93" height="103" viewBox="0 0 93 103" fill="none" xmlns="http://www.w3.org/2000/svg">
<rect x="0.5" y="14.5" width="84" height="84" rx="42" fill="#56CCF2" stroke="#56CCF2"/>
<path d="M21.2267 52.1022L21.2412 52.1168C22.9246 53.8013 25.4447 57.6166 27.9412 62.0023C30.4474 66.4052 32.9641 71.4447 34.634 75.6204C36.8572 81.1764 41.7635 86.6699 45.5278 90.3266L45.5302 90.3289C47.2496 92.0211 48.2148 94.334 48.2098 96.7469M21.2267 52.1022L47.71 96.7458M21.2267 52.1022L21.211 52.0889C19.6571 50.7708 19.0949 48.6217 19.8009 46.7121C20.8559 44.5365 23.0811 43.1737 25.4995 43.2242L25.4995 43.2243H25.51C26.5423 43.2243 27.7893 43.6877 29.1617 44.5156C30.5238 45.3372 31.9581 46.4864 33.3523 47.7847C36.1409 50.3815 38.7203 53.5294 40.1812 55.7143C41.2142 57.2855 42.4234 58.7339 43.784 60.0315L43.7846 60.0321C44.3177 60.5387 45.073 60.7379 45.7864 60.5582M21.2267 52.1022L45.7864 60.5582M48.2098 96.7469L47.71 96.7458M48.2098 96.7469V96.7458H47.71M48.2098 96.7469V97.3704C48.2098 99.9242 50.2796 101.994 52.8334 101.994H80.156C82.7097 101.994 84.7795 99.9242 84.7795 97.3704V92.1328M47.71 96.7458V97.3704C47.71 100.2 50.0035 102.494 52.8334 102.494H80.156C82.9858 102.494 85.2794 100.2 85.2794 97.3704V92.1243M84.7795 92.1328C84.7796 92.136 84.7797 92.1392 84.7798 92.1423L85.2794 92.1243M84.7795 92.1328C84.7616 91.5642 84.9789 91.0123 85.3812 90.6089L85.3893 90.6008L85.3978 90.593C88.4495 87.8024 90.0085 84.0609 90.8017 80.9343C91.5937 77.8122 91.6102 75.3501 91.6102 75.1704V48.1363V48.1276L91.6102 48.1276C91.669 44.7339 89.1123 41.8644 85.736 41.5326M84.7795 92.1328V92.1243H85.2794M85.2794 92.1243L85.736 41.5326M81.864 41.9646C82.0273 41.8684 82.1941 41.7793 82.3639 41.6975V41.9646H81.864ZM81.864 41.9646V41.3912C81.7786 41.437 81.6941 41.4846 81.6103 41.5339L81.864 41.9646ZM85.736 41.5326C85.7386 41.5328 85.7412 41.533 85.7437 41.5331L85.7765 41.0344M85.736 41.5326L92.11 48.1363C92.1733 44.4794 89.4162 41.3877 85.7765 41.0344M85.736 41.5326C84.4708 41.4511 83.2102 41.7518 82.1177 42.3953L81.3642 42.8391V41.9646V39.3091V39.3063C81.3772 37.0265 80.1563 34.9185 78.172 33.7952L78.1719 33.7952C76.1884 32.672 73.7523 32.7097 71.8043 33.8944L71.1224 34.3091L71.047 33.5146C70.8443 31.3815 69.5631 29.5009 67.6529 28.5317M85.736 41.5326L48.2097 52.9584C48.2097 52.9604 48.2098 52.9624 48.2098 52.9645M85.736 41.5326C85.7334 41.5324 85.7308 41.5321 85.7282 41.5319L85.7765 41.0344M85.736 41.5326L85.7765 41.0344M67.6529 28.5317C67.6529 28.5317 67.653 28.5318 67.653 28.5318L67.8791 28.086L67.6529 28.5317ZM67.6529 28.5317C65.7418 27.5625 63.4683 27.6385 61.6269 28.7344L60.8714 29.184V28.3049V25.4766V25.1855L61.1246 25.0419C65.206 22.7257 67.7202 18.3883 67.7029 13.6956L67.7029 13.6938C67.7029 6.42473 61.8097 0.532318 54.5406 0.532318C47.2715 0.532318 41.3792 6.42469 41.3792 13.6938V13.6956C41.3619 18.3884 43.8761 22.7257 47.9567 25.0419L48.2098 25.1856V25.4766V52.9645M48.2098 52.9645C48.2589 55.0318 47.9772 57.0927 47.3752 59.0711L47.373 59.0783L47.3729 59.0783C47.137 59.8134 46.5356 60.3735 45.7864 60.5582M48.2098 52.9645L45.7864 60.5582M60.8714 22.4523V21.3413V13.6938C60.8714 10.1973 58.0371 7.36297 54.5406 7.36297C51.0441 7.36297 48.2098 10.1973 48.2098 13.6938V21.3413V22.4526L47.3784 21.7153C45.0846 19.6815 43.778 16.758 43.7948 13.6923C43.7948 13.6919 43.7948 13.6914 43.7948 13.691L44.2947 13.6938C44.2947 8.03492 48.8818 3.4478 54.5406 3.4478C60.1995 3.4478 64.7866 8.03492 64.7866 13.6938L60.8714 22.4523ZM60.8714 22.4523L61.7028 21.7154C63.9975 19.6815 65.3033 16.7579 65.2865 13.6924L60.8714 22.4523ZM38.1668 57.0567L38.1682 57.0588C39.3048 58.7825 40.634 60.3712 42.1298 61.795C43.2617 62.8655 44.8627 63.2832 46.3735 62.9014L46.375 62.901C47.9161 62.5168 49.1538 61.3713 49.6574 59.8653C50.3472 57.637 50.6744 55.3127 50.6256 52.9809L50.6253 52.9704H50.6255V13.6938C50.6255 11.5314 52.3783 9.7786 54.5406 9.7786C56.703 9.7786 58.4558 11.5314 58.4558 13.6938V49.5551C58.4558 50.2226 58.9965 50.7633 59.664 50.7633C60.3306 50.7633 60.8714 50.2227 60.8714 49.5551V34.1865C60.8714 32.0241 62.6251 30.2713 64.7866 30.2713C66.9488 30.2713 68.7026 32.024 68.7026 34.1865V49.5551C68.7026 50.2227 69.2434 50.7633 69.91 50.7633C70.5775 50.7633 71.1182 50.2226 71.1182 49.5551V39.3091C71.1182 37.1468 72.871 35.3939 75.0334 35.3939C77.1957 35.3939 78.9485 37.1468 78.9485 39.3091V51.2631C78.9485 51.9298 79.4893 52.4706 80.156 52.4706C80.8236 52.4706 81.3642 51.9297 81.3642 51.2631V47.8491V47.8478H81.864C81.8617 46.9418 82.2228 46.0725 82.8662 45.4347L38.1668 57.0567ZM38.1668 57.0567C36.3281 54.2986 33.8206 51.4699 31.4779 49.3277C30.3065 48.2566 29.1661 47.3477 28.1616 46.7031C27.6595 46.3808 27.1827 46.1191 26.7465 45.9365C26.3191 45.7576 25.8996 45.6415 25.5176 45.6399C24.0982 45.6004 22.771 46.3424 22.0612 47.5721L22.0448 47.6006L22.0322 47.631C21.6375 48.5853 22.0876 49.5482 22.949 50.4088C24.6831 52.143 27.2861 56.0144 29.9107 60.591C32.5265 65.1522 35.1322 70.3578 36.8788 74.7214C39.0701 80.2011 44.3157 85.7831 47.2095 88.5925C49.3963 90.7411 50.6277 93.6793 50.6255 96.7455V96.7458V97.3704C50.6255 98.59 51.6138 99.5783 52.8334 99.5783H80.156C81.3756 99.5783 82.3639 98.59 82.3639 97.3704L82.3639 92.1243L82.3638 92.1187C82.3498 90.8681 82.8594 89.6679 83.7686 88.8093C86.4605 86.3473 87.8094 82.9417 88.4892 80.1825C89.1709 77.4156 89.1945 75.2382 89.1945 75.1704V48.1423L38.1668 57.0567ZM50.1333 60.0184C50.84 57.7373 51.1753 55.3578 51.1253 52.9704L46.496 63.386C48.2048 62.96 49.5767 61.6889 50.1333 60.0184Z" fill="#5C5C5C" stroke="#56CCF2" stroke-width="0.999695"/>
<path d="M84.7802 71.7537C84.7802 72.4212 84.2395 72.9619 83.572 72.9619C82.9055 72.9619 82.3646 72.4214 82.3646 71.7537V61.5077C82.3646 60.8411 82.9053 60.3003 83.572 60.3003C84.2396 60.3003 84.7802 60.8412 84.7802 61.5077V71.7537Z" fill="#5C5C5C" stroke="#56CCF2" stroke-width="0.999695"/>
<path d="M82.7302 82.84L82.7229 82.8468L82.7158 82.8538C82.4902 83.08 82.183 83.2073 81.8628 83.2073C81.3739 83.2073 80.934 82.9133 80.7471 82.4615L80.747 82.4613C80.5618 82.0141 80.6618 81.4997 81.0002 81.1539C81.7334 80.4914 82.2127 79.5948 82.3572 78.6178L82.361 78.592L82.3621 78.566C82.3904 77.9052 82.9409 77.3877 83.6018 77.4005L83.6055 77.4005C84.2494 77.4082 84.7685 77.9271 84.7781 78.5685C84.6636 80.201 83.9313 81.7285 82.7302 82.84Z" fill="#5C5C5C" stroke="#56CCF2" stroke-width="0.999695"/>
<path d="M57.9544 95.1622H56.2471C55.5796 95.1622 55.0389 94.6215 55.0389 93.954C55.0389 93.2875 55.5795 92.7466 56.2471 92.7466H57.9544C58.622 92.7466 59.1626 93.2875 59.1626 93.954C59.1626 94.6215 58.6219 95.1622 57.9544 95.1622Z" fill="#5C5C5C" stroke="#56CCF2" stroke-width="0.999695"/>
<path d="M76.7404 95.1622H64.7864C64.1198 95.1622 63.5789 94.6216 63.5789 93.954C63.5789 93.2873 64.1197 92.7466 64.7864 92.7466H76.7404C77.408 92.7466 77.9486 93.2875 77.9486 93.954C77.9486 94.6215 77.4079 95.1622 76.7404 95.1622Z" fill="#5C5C5C" stroke="#56CCF2" stroke-width="0.999695"/>
<path d="M40.9987 2.49923L40.9986 2.49914L40.9915 2.50781C35.3405 9.3343 35.6711 19.3028 41.761 25.74C42.0905 26.091 42.18 26.6043 41.9887 27.0467C41.7975 27.4887 41.362 27.7747 40.8793 27.7747C40.5458 27.7747 40.2273 27.637 39.9989 27.3943L39.9982 27.3935C33.0775 20.0686 32.7053 8.73311 39.1295 0.969691L39.1297 0.969782L39.137 0.960424C39.4087 0.615763 39.8449 0.445582 40.2777 0.515239C40.7107 0.584911 41.0718 0.883437 41.2217 1.29538C41.3709 1.70747 41.2857 2.16807 40.9987 2.49923Z" fill="#5C5C5C" stroke="#56CCF2" stroke-width="0.999695"/>
<path d="M67.8631 1.29561C68.013 0.883469 68.3742 0.58491 68.8064 0.515239L68.8065 0.515223C69.2396 0.445561 69.6762 0.616023 69.9468 0.960035L69.9467 0.960135L69.9548 0.969935C75.0412 7.10872 75.9777 15.6893 72.3356 22.7814L72.3352 22.7821C72.1894 23.067 71.9365 23.2821 71.6309 23.3806L71.6306 23.3807C71.3266 23.4789 70.995 23.452 70.7103 23.3061C70.1167 23.0013 69.8827 22.2737 70.1871 21.6809C73.3889 15.447 72.5657 7.90383 68.0933 2.50758L68.0934 2.5075L68.0859 2.49887C67.7984 2.16773 67.7133 1.70741 67.8631 1.29561Z" fill="#5C5C5C" stroke="#56CCF2" stroke-width="0.999695"/>
</svg>
