<?xml version="1.0" standalone="no"?>
<!DOCTYPE svg PUBLIC "-//W3C//DTD SVG 20010904//EN"
 "http://www.w3.org/TR/2001/REC-SVG-20010904/DTD/svg10.dtd">
<svg version="1.0" xmlns="http://www.w3.org/2000/svg"
 width="2228.000000pt" height="784.000000pt" viewBox="0 0 2228.000000 784.000000"
 preserveAspectRatio="xMidYMid meet">
<metadata>
Created by potrace 1.16, written by Peter Selinger 2001-2019
</metadata>
<g transform="translate(0.000000,784.000000) scale(0.100000,-0.100000)"
fill="#000000" stroke="none">
<path d="M6436 6290 c-293 -46 -487 -190 -543 -402 -34 -132 16 -277 135 -390
104 -98 200 -141 582 -258 235 -73 351 -144 400 -247 28 -57 39 -222 21 -290
-28 -104 -114 -180 -251 -225 -99 -31 -360 -37 -490 -10 -151 31 -302 99 -413
185 -21 16 -39 28 -41 26 -2 -2 -13 -23 -25 -46 l-21 -41 69 -51 c202 -150
478 -241 691 -228 340 21 599 207 643 463 28 161 -64 340 -228 443 -85 54
-191 97 -425 171 -306 97 -405 153 -465 261 -29 51 -30 60 -30 174 0 113 2
123 28 167 33 56 90 98 178 130 60 21 79 23 284 23 211 -1 224 -2 310 -28 50
-16 119 -41 154 -57 35 -17 67 -30 71 -30 4 0 17 23 28 50 l21 50 -77 39
c-190 95 -444 146 -606 121z"/>
<path d="M10780 6270 c-207 -44 -372 -133 -528 -284 -144 -139 -236 -300 -284
-493 -99 -403 142 -867 557 -1076 283 -141 566 -141 860 3 95 46 245 145 245
161 0 4 -10 20 -23 34 l-22 27 -88 -55 c-94 -60 -181 -96 -292 -124 -107 -26
-382 -23 -490 6 -304 82 -528 302 -606 596 -29 109 -31 343 -5 460 73 327 336
571 678 631 125 22 340 15 453 -15 95 -25 219 -85 292 -141 l53 -39 27 36 27
36 -39 33 c-97 81 -290 171 -442 204 -112 25 -258 25 -373 0z"/>
<path d="M12200 5305 l0 -985 75 0 75 0 0 985 0 985 -75 0 -75 0 0 -985z"/>
<path d="M13260 5323 c-238 -533 -437 -976 -442 -985 -8 -16 -3 -18 49 -18
l58 0 114 260 114 260 612 0 611 0 115 -260 114 -260 58 0 c52 0 58 2 53 18
-4 9 -201 452 -439 984 l-432 968 -76 0 -75 0 -434 -967z m783 267 c206 -464
227 -515 227 -565 l0 -55 -505 0 -505 0 0 56 c0 52 19 100 223 565 l222 508
56 1 56 0 226 -510z"/>
<path d="M15190 5305 l0 -985 525 0 525 0 0 65 0 65 -455 0 -455 0 0 920 0
920 -70 0 -70 0 0 -985z"/>
<path d="M5097 3615 c-437 -71 -802 -298 -1022 -634 -270 -412 -299 -889 -81
-1336 125 -257 298 -444 541 -591 283 -169 650 -244 943 -191 277 50 585 197
810 387 l73 62 -68 72 c-37 39 -112 117 -166 174 l-98 103 -34 -30 c-95 -83
-256 -171 -395 -216 -73 -24 -106 -28 -239 -33 -171 -5 -256 5 -361 45 -251
93 -438 317 -495 593 -36 179 -26 410 26 565 85 256 287 448 544 517 116 31
365 31 480 -1 147 -39 303 -126 419 -232 56 -51 58 -52 75 -33 58 61 301 355
301 363 0 6 -28 34 -62 62 -189 157 -429 273 -698 336 -135 31 -362 40 -493
18z"/>
<path d="M1903 3593 c-4 -9 -269 -625 -589 -1367 l-583 -1351 292 -3 c160 -1
297 0 302 2 6 2 57 121 114 265 l103 261 666 -2 666 -3 100 -262 101 -263 318
0 c175 0 316 3 314 8 -2 4 -262 620 -578 1370 l-573 1362 -323 0 c-295 0 -324
-1 -330 -17z m560 -1133 c161 -417 197 -520 197 -560 l0 -50 -450 0 -450 0 0
57 c0 50 23 115 198 560 l197 503 55 0 56 0 197 -510z"/>
<path d="M7716 3602 c-8 -13 -1176 -2722 -1176 -2727 0 -3 136 -4 301 -3 l301
3 103 260 102 260 666 3 665 2 60 -152 c32 -84 78 -204 102 -265 l43 -113 317
0 317 0 -494 1173 c-272 644 -531 1260 -576 1367 l-82 195 -322 3 c-177 1
-324 -1 -327 -6z m551 -1132 c173 -448 192 -501 192 -557 l1 -63 -450 0 -450
0 0 48 c0 38 39 146 202 560 l202 513 55 -3 56 -3 192 -495z"/>
<path d="M9910 2240 l0 -1370 553 0 c303 0 613 5 687 10 404 31 729 166 980
406 265 255 405 587 404 964 -1 355 -128 670 -371 921 -238 245 -551 390 -932
428 -60 7 -356 11 -712 11 l-609 0 0 -1370z m1430 861 c285 -85 486 -315 544
-620 21 -108 22 -380 2 -484 -68 -353 -309 -594 -638 -637 -40 -5 -216 -10
-390 -10 l-318 0 0 891 0 891 363 -4 c340 -4 367 -6 437 -27z"/>
<path d="M13020 2240 l0 -1370 1080 0 1080 0 0 240 0 240 -770 0 -770 0 0 330
0 330 675 0 675 0 0 235 0 235 -675 0 -675 0 0 330 0 330 750 0 750 0 0 235 0
235 -1060 0 -1060 0 0 -1370z"/>
<path d="M15740 2240 l0 -1370 275 0 275 0 0 910 0 910 53 0 52 0 84 -193 c46
-105 196 -450 334 -765 l250 -572 189 2 189 3 332 762 332 763 53 0 52 0 0
-623 c0 -343 3 -753 7 -910 l6 -287 269 0 268 0 0 1370 0 1370 -348 0 -348 0
-379 -835 -380 -835 -55 2 -55 3 -379 833 -379 832 -349 0 -348 0 0 -1370z"/>
<path d="M19208 3538 c22 -40 247 -457 501 -926 l461 -853 0 -444 0 -445 310
0 310 0 0 463 0 463 485 904 485 905 -278 3 c-152 1 -282 0 -288 -2 -6 -2
-159 -279 -340 -615 l-329 -610 -51 -1 -50 0 -340 615 -339 614 -288 1 -288 0
39 -72z"/>
</g>
</svg>
